<svg width="16" height="20" viewBox="0 0 16 20" fill="none" xmlns="http://www.w3.org/2000/svg">
<path d="M13.3311 19.1976C12.2972 20.253 11.1685 20.0864 10.0819 19.5864C8.93206 19.0754 7.87714 19.0532 6.66399 19.5864C5.14491 20.2752 4.34317 20.0752 3.43595 19.1976C-1.71205 13.6094 -0.952507 5.09936 4.89173 4.78828C6.31587 4.86605 7.30749 5.6104 8.14087 5.67706C9.38567 5.41043 10.5777 4.64386 11.9069 4.74385C13.4998 4.87716 14.7025 5.54374 15.4936 6.74359C12.2023 8.82111 12.9829 13.3872 16 14.6648C15.3987 16.3313 14.6181 17.9866 13.3205 19.2087L13.3311 19.1976ZM8.03538 4.72163C7.87714 2.24416 9.78654 0.199975 11.9808 0C12.2867 2.8663 9.51226 4.99937 8.03538 4.72163Z" fill="white"/>
</svg>
