<svg width="200" height="88" viewBox="0 0 200 88" fill="none" xmlns="http://www.w3.org/2000/svg">
<path d="M99.7841 6.11637C93.3246 7.01799 86.8823 2.88776 80.6158 3.53669C78.2635 6.39087 73.4947 13.0089 69.4494 23.903C67.4096 29.3989 66.9949 37.1287 67.1443 45.0078C68.008 49.2656 68.5581 53.5807 68.7626 57.9211C68.9739 62.8358 70.7163 68.0756 70.7852 73.3119C70.8518 78.6917 68.0275 83.6581 69.701 85.1857C74.9981 90.0338 129.873 86.8063 135.583 85.1857C137.764 84.5643 133.724 79.7438 133.234 71.8073C132.952 67.1854 132.936 62.551 133.187 57.9269C133.482 52.7675 134.073 47.6289 134.959 42.5361C135.024 42.5292 135.093 42.5212 135.159 42.5132C130.825 27.8437 122.24 12.6184 116.668 3.63777C111.791 4.55662 104.919 6.13589 99.7841 6.11637Z" fill="#353B64"/>
<path d="M166.55 54.2565L147.901 24.1967L137.389 41.5857L152.606 62.6431C154.651 66.0056 159.03 67.0815 162.402 65.0518L164.124 64.0103C167.485 61.9973 168.578 57.64 166.566 54.2787L166.552 54.2562L166.55 54.2565Z" fill="#DBAF8F"/>
<path d="M152.715 56.6307C152.755 56.5375 152.798 56.4446 152.841 56.3505L172.075 17.2287C172.111 17.156 172.156 17.0955 172.195 17.0218L172.815 15.9024L172.817 15.8761C175.084 18.8241 179.269 20.1055 182.768 20.6525L167.54 60.4267C165.827 64.8412 160.867 67.0375 156.449 65.339C156.363 65.3057 156.279 65.2726 156.198 65.2386C152.861 63.8288 151.299 59.9837 152.707 56.6473L152.715 56.6307Z" fill="#F1C5A3"/>
<path d="M174.413 17.4614C176.872 19.1811 179.716 20.2729 182.695 20.6425L180.63 25.9854C177.323 24.2912 175.016 21.1277 174.413 17.4614Z" fill="#C19283"/>
<path d="M175.52 10.2186C176.822 13.2645 180.094 14.5336 182.83 13.0505C183.43 12.7256 183.972 12.2821 184.431 11.743L187.599 8.00934C188.27 7.3081 188.416 6.18123 187.948 5.3066C187.418 4.31823 186.288 3.96818 185.369 4.51156L180.817 7.17965L175.521 10.2212L175.52 10.2186Z" fill="#F1C5A3"/>
<path d="M172.354 16.6743C172.236 14.4306 173.025 12.2348 174.502 10.6923C174.568 10.6419 174.638 10.5966 174.708 10.5565L174.687 10.4734C177.581 8.39873 183.47 9.11547 187.392 9.91251C189.798 10.4048 192.25 9.25921 193.644 6.99282C194.688 5.30657 196.75 4.87225 198.25 6.0247C199.287 6.8223 199.823 8.21674 199.629 9.616C199.546 10.2081 199.333 10.771 199.012 11.2511L193.926 18.8648C193.16 20.0098 191.921 20.63 190.654 20.5034L183.022 21.527L183 21.607C179.308 21.1947 174.87 19.9711 172.354 16.6743Z" fill="#F1C5A3"/>
<g opacity="0.3">
<path d="M193.216 11.0463C192.812 14.0515 187.247 16.2934 184.936 15.1855" stroke="#916162" stroke-width="1.03984" stroke-miterlimit="10" stroke-linecap="round"/>
</g>
<path d="M38.3441 55.9733L54.8774 24.7017L66.5625 41.3254L52.8319 63.3785C51.0227 66.8739 46.7289 68.2499 43.2243 66.4573L41.435 65.5368C37.9432 63.7601 36.552 59.4883 38.3288 55.9965L38.3418 55.9732L38.3441 55.9733Z" fill="#DBAF8F"/>
<path d="M52.1969 57.4803C52.1484 57.3913 52.0976 57.3028 52.0443 57.2136L29.1141 20.1379C29.0694 20.0693 29.0179 20.0136 28.973 19.9439L28.2477 18.8897L28.2428 18.8638C26.2727 22.0173 22.2299 23.6983 18.8017 24.5812L37.8081 62.6942C39.9407 66.922 45.0901 68.6277 49.3241 66.5092C49.4051 66.468 49.4872 66.4265 49.5646 66.3849C52.7475 64.6589 53.9309 60.6804 52.2069 57.4959L52.1969 57.4803Z" fill="#F1C5A3"/>
<path d="M26.8101 20.6612C24.5092 22.5872 21.7703 23.921 18.835 24.5469L21.3537 29.6912C24.5018 27.7172 26.5262 24.3659 26.8101 20.6612Z" fill="#C19283"/>
<path d="M24.9322 14.1342C23.7312 16.9714 20.4579 18.2987 17.6208 17.0978C16.9989 16.8347 16.4308 16.462 15.9433 15.9968L12.5771 12.7731C11.8676 12.1719 11.6747 11.1559 12.1151 10.3361C12.6139 9.40971 13.7485 9.03221 14.7035 9.47666L19.4322 11.6569L24.9311 14.1355L24.9322 14.1342Z" fill="#F1C5A3"/>
<path d="M28.4036 19.8289C28.4342 17.7841 27.547 15.8311 25.9848 14.5089C25.9153 14.4667 25.8439 14.4292 25.7695 14.3966L25.7893 14.3199C22.7668 12.59 16.8128 13.5569 12.8623 14.4912C10.4389 15.0674 7.90324 14.1579 6.39635 12.1735C5.27014 10.6973 3.16013 10.4131 1.68283 11.5405C0.660167 12.3209 0.171019 13.6166 0.423677 14.8775C0.531023 15.4111 0.770292 15.911 1.11652 16.33L6.58306 22.9752C7.40746 23.9743 8.68888 24.4717 9.96985 24.2887L17.7637 24.8096L17.7908 24.881C21.5199 24.31 25.9811 22.959 28.4036 19.8289Z" fill="#F1C5A3"/>
<g opacity="0.3">
<path d="M6.99341 15.8334C7.52339 18.5422 13.2622 20.281 15.566 19.1505" stroke="#916162" stroke-miterlimit="10" stroke-linecap="round"/>
</g>
<path d="M81.2965 2.38166C80.3973 2.40009 79.4957 2.50811 78.592 2.74253C73.7995 3.9693 68.195 4.25295 63.6259 7.62378L63.6273 7.59854C63.6273 7.59854 63.3105 7.82692 62.7294 8.29218C61.8808 8.94814 61.0389 9.6286 60.2058 10.3601L60.2031 10.4106C57.3717 12.9075 51.651 21.2246 52.0016 28.4693C52.1969 32.5993 57.9366 40.7544 65.1619 42.3108C65.168 42.3468 65.1718 42.3849 65.1768 42.4208C69.3942 37.6388 73.1001 32.4135 75.6225 26.8813C79.5382 18.2868 81.5968 9.35919 81.2965 2.38166Z" fill="#353B64"/>
<path d="M136.348 40.7213C140.53 40.0585 146.659 38.6502 148.771 36.9349C156.711 30.5133 147.84 15.795 140.948 7.55282C135.492 3.96945 127.266 3.786 121.085 1.93777C120.055 1.89424 118.202 2.27857 115.92 2.82826C116.765 8.38628 118.829 16.4946 123.781 26.0719C126.415 31.1649 130.783 35.8059 136.348 40.7213Z" fill="#353B64"/>
<g opacity="0.35">
<path d="M140.162 10.0675C140.162 10.0675 134.883 14.4033 135.712 23.0991" stroke="black" stroke-linecap="round"/>
</g>
<g opacity="0.35">
<path d="M64.6394 12.035C64.6394 12.035 66.8113 17.4126 65.9798 21.8598" stroke="black" stroke-linecap="round"/>
</g>
</svg>
