<svg width="20" height="20" viewBox="0 0 20 20" fill="none" xmlns="http://www.w3.org/2000/svg">
<path d="M18.8965 0H1.10351C0.494057 0 0 0.494057 0 1.10351V18.8965C0 19.5059 0.494057 20 1.10351 20H18.8965C19.5059 20 20 19.5059 20 18.8965V1.10351C20 0.494057 19.5059 0 18.8965 0Z" fill="#3D5A98"/>
<path d="M13.7982 19.9983V12.2535H16.3973L16.7859 9.23532H13.7982V7.30884C13.7982 6.43516 14.0415 5.83862 15.2937 5.83862H16.8924V3.13478C16.1183 3.0541 15.3403 3.01574 14.562 3.01986C12.2604 3.01986 10.6752 4.42248 10.6752 7.00972V9.23532H8.07617V12.2535H10.6752V19.9983H13.7982Z" fill="white"/>
</svg>
