<svg width="20" height="22" viewBox="0 0 20 22" fill="none" xmlns="http://www.w3.org/2000/svg">
<mask id="mask0_84_19970" style="mask-type:luminance" maskUnits="userSpaceOnUse" x="0" y="0" width="20" height="22">
<path d="M19.7675 9.14236H10.2326V13.0898H15.7209C15.2093 15.5977 13.0698 17.0373 10.2326 17.0373C6.88372 17.0373 4.18605 14.3438 4.18605 11C4.18605 7.65625 6.88372 4.96268 10.2326 4.96268C11.6744 4.96268 12.9767 5.47354 14 6.30948L16.9768 3.33724C15.1628 1.75825 12.8372 0.78299 10.2326 0.78299C4.55814 0.78299 0 5.3342 0 11C0 16.6658 4.55814 21.217 10.2326 21.217C15.3488 21.217 20 17.5017 20 11C20 10.3963 19.907 9.7461 19.7675 9.14236Z" fill="white"/>
</mask>
<g mask="url(#mask0_84_19970)">
<path d="M-0.930176 17.0373V4.96268L6.97681 11L-0.930176 17.0373Z" fill="#FBBC05"/>
</g>
<mask id="mask1_84_19970" style="mask-type:luminance" maskUnits="userSpaceOnUse" x="0" y="0" width="20" height="22">
<path d="M19.7675 9.14236H10.2326V13.0898H15.7209C15.2093 15.5977 13.0698 17.0373 10.2326 17.0373C6.88372 17.0373 4.18605 14.3438 4.18605 11C4.18605 7.65625 6.88372 4.96268 10.2326 4.96268C11.6744 4.96268 12.9767 5.47354 14 6.30948L16.9768 3.33724C15.1628 1.75825 12.8372 0.78299 10.2326 0.78299C4.55814 0.78299 0 5.3342 0 11C0 16.6658 4.55814 21.217 10.2326 21.217C15.3488 21.217 20 17.5017 20 11C20 10.3963 19.907 9.7461 19.7675 9.14236Z" fill="white"/>
</mask>
<g mask="url(#mask1_84_19970)">
<path d="M-0.930176 4.96269L6.97681 11L10.2326 8.16713L21.3954 6.35592V-0.145813H-0.930176V4.96269Z" fill="#EA4335"/>
</g>
<mask id="mask2_84_19970" style="mask-type:luminance" maskUnits="userSpaceOnUse" x="0" y="0" width="20" height="22">
<path d="M19.7675 9.14236H10.2326V13.0898H15.7209C15.2093 15.5977 13.0698 17.0373 10.2326 17.0373C6.88372 17.0373 4.18605 14.3438 4.18605 11C4.18605 7.65625 6.88372 4.96268 10.2326 4.96268C11.6744 4.96268 12.9767 5.47354 14 6.30948L16.9768 3.33724C15.1628 1.75825 12.8372 0.78299 10.2326 0.78299C4.55814 0.78299 0 5.3342 0 11C0 16.6658 4.55814 21.217 10.2326 21.217C15.3488 21.217 20 17.5017 20 11C20 10.3963 19.907 9.7461 19.7675 9.14236Z" fill="white"/>
</mask>
<g mask="url(#mask2_84_19970)">
<path d="M-0.930176 17.0373L13.0233 6.35592L16.6977 6.82033L21.3954 -0.145813V22.1459H-0.930176V17.0373Z" fill="#34A853"/>
</g>
<mask id="mask3_84_19970" style="mask-type:luminance" maskUnits="userSpaceOnUse" x="0" y="0" width="20" height="22">
<path d="M19.7675 9.14236H10.2326V13.0898H15.7209C15.2093 15.5977 13.0698 17.0373 10.2326 17.0373C6.88372 17.0373 4.18605 14.3438 4.18605 11C4.18605 7.65625 6.88372 4.96268 10.2326 4.96268C11.6744 4.96268 12.9767 5.47354 14 6.30948L16.9768 3.33724C15.1628 1.75825 12.8372 0.78299 10.2326 0.78299C4.55814 0.78299 0 5.3342 0 11C0 16.6658 4.55814 21.217 10.2326 21.217C15.3488 21.217 20 17.5017 20 11C20 10.3963 19.907 9.7461 19.7675 9.14236Z" fill="white"/>
</mask>
<g mask="url(#mask3_84_19970)">
<path d="M21.3954 22.1458L6.9768 11L5.11633 9.60677L21.3954 4.96268V22.1458Z" fill="#4285F4"/>
</g>
</svg>
