<svg width="59" height="89" viewBox="0 0 59 89" fill="none" xmlns="http://www.w3.org/2000/svg">
<path d="M28.7106 73.6264C28.7106 73.6264 19.4383 73.1244 7.34047 78.4607C7.34047 78.4607 7.08664 88.8724 27.9755 88.8724C48.8633 88.8724 50.7297 77.4626 50.7297 77.4626C50.7297 77.4626 37.4638 72.7443 28.7106 73.6264Z" fill="#F1C5A3"/>
<path d="M38.2461 83.4615L38.1772 83.4822C36.4463 83.8693 34.6867 84.1231 32.9156 84.2425H32.8949C27.6127 84.3436 22.4177 82.8826 17.9636 80.0434L18.175 69.1608L18.407 57.4822L21.0923 58.2988L37.7821 63.3904L38.1025 76.9767L38.2461 83.4615Z" fill="#F1C5A3"/>
<g opacity="0.45">
<path d="M28.0697 75.0897C32.8937 75.0897 36.9263 72.2194 37.9095 68.3912L37.8153 64.4494C37.7797 64.3276 37.7475 64.2047 37.7004 64.083L22.5268 59.4474C20.5237 60.5064 19.0099 62.3027 18.3069 64.4574L18.23 68.4096C19.2258 72.232 23.2458 75.0897 28.0697 75.0897Z" fill="#20181B"/>
</g>
<path d="M10.2867 52.0933C5.92759 54.986 -0.633259 40.4798 3.64189 37.3413C7.91703 34.2028 10.1747 40.5339 10.1747 40.5339L10.1405 45.6741L10.5049 50.5784L10.6574 52.0871L10.2867 52.0933Z" fill="#F1C5A3"/>
<path d="M4.56158 41.6669C4.56158 41.6669 7.65917 40.8083 9.59784 45.4024" stroke="#FFA184" stroke-width="0.674" stroke-linecap="round" stroke-linejoin="round"/>
<path d="M8.23554 43.1335C8.23554 43.1335 4.8261 44.734 6.88006 47.5101" stroke="#FFA184" stroke-width="0.674" stroke-linecap="round" stroke-linejoin="round"/>
<path d="M31.6878 1.87215C38.1365 2.20361 43.0947 7.68211 42.7643 14.1102C42.434 20.5371 36.9402 25.4795 30.4915 25.1481C24.0439 24.8167 19.0847 19.337 19.415 12.91C19.7454 6.48199 25.2403 1.54076 31.6878 1.87215Z" fill="#20181B"/>
<g opacity="0.25">
<path d="M30.7511 13.0467C36.9176 13.3636 41.7411 17.0319 41.5248 21.2392C41.3086 25.4466 36.1344 28.601 29.9679 28.2841C23.8014 27.9671 18.9779 24.2988 19.1941 20.0915C19.4104 15.8841 24.5845 12.7297 30.7511 13.0467Z" fill="white"/>
</g>
<path d="M38.1812 64.4793L38.0808 64.4408C38.1181 64.5658 38.1438 64.6924 38.1777 64.8161L38.1812 64.4793Z" fill="#20181B"/>
<path d="M47.0695 53.9082C51.1216 57.2343 59.1224 43.4789 55.1914 39.9232C51.2592 36.3674 48.2381 42.3593 48.2381 42.3593L47.8693 47.5433L47.0064 52.3845L46.6942 53.8705L47.0695 53.9082Z" fill="#F1C5A3"/>
<path d="M53.8334 44.1223C53.8334 44.1223 50.839 42.9506 48.4395 47.3218" stroke="#FFA184" stroke-width="0.674" stroke-linecap="round" stroke-linejoin="round"/>
<path d="M50.0366 45.205C50.0366 45.205 53.265 47.1489 50.9361 49.6997" stroke="#FFA184" stroke-width="0.674" stroke-linecap="round" stroke-linejoin="round"/>
<path d="M48.9748 48.2095C48.7412 54.2089 46.5408 59.9647 42.7137 64.5891C39.0628 68.8741 33.5775 71.1465 27.9651 70.6993C21.6248 70.4724 15.8716 66.9242 12.8224 61.361C10.2473 56.7295 9.0484 51.4592 9.36746 46.1691C10.0562 32.7682 10.6146 21.9045 30.4219 22.9225C50.2291 23.9406 49.6637 34.8074 48.9748 48.2095Z" fill="#F1C5A3"/>
<path d="M19.9615 52.9609C20.0019 54.6582 18.6586 56.0682 16.9613 56.1086C15.264 56.149 13.854 54.8069 13.8136 53.1096C13.7732 51.4123 15.1165 50.0012 16.8138 49.9608L16.8253 49.9614C16.8999 49.9652 16.9737 49.9609 17.054 49.9651C18.6822 49.9935 19.982 51.3323 19.9615 52.9609Z" fill="#FFA184"/>
<path d="M42.0925 54.0974C42.133 55.7947 40.7897 57.2035 39.0924 57.2451C37.3951 57.2855 35.9851 55.9422 35.9447 54.2449C35.9043 52.5476 37.2464 51.1376 38.9449 51.0972L38.954 51.0977C39.0298 51.1016 39.1025 51.0961 39.1839 51.1003C40.8147 51.1243 42.1178 52.4656 42.096 54.0964L42.0925 54.0974Z" fill="#FFA184"/>
<path d="M28.0886 48.2907L27.0529 54.0546C27.005 54.963 27.7035 55.7384 28.6131 55.7863C28.7805 55.7949 28.9494 55.7771 29.1126 55.7349L30.8716 55.3664" stroke="#EA8A70" stroke-miterlimit="10" stroke-linecap="round"/>
<path d="M50.0742 30.3295C50.0742 30.3295 48.6702 15.6018 30.4292 15.5498C14.3226 15.5006 9.52658 25.3265 8.92372 32.9608C8.5927 37.1634 9.22973 44.751 9.31161 47.3199C9.71085 45.4819 10.109 41.4046 12.5113 37.7846C15.5451 33.1999 19.5534 29.0989 29.9136 29.6314C35.736 29.9306 41.8558 32.589 45.2648 37.8878C47.9144 42.0091 48.5534 48.4616 48.5022 51.8966C48.9048 49.5021 49.7249 42.4954 49.8781 40.5666C50.3687 37.1749 50.4351 33.7361 50.0742 30.3295Z" fill="#20181B"/>
<path d="M19.169 29.9152C19.169 29.9152 17.3743 35.7447 18.5183 35.8622C20.6982 36.0547 22.8896 36.0662 25.0719 35.8988C25.601 35.65 26.0414 31.5795 26.4453 31.5531C26.8492 31.5267 26.3451 35.8964 27.0792 36.002C28.9832 36.2137 30.8988 36.3122 32.8144 36.2968C33.4545 36.1721 33.7702 31.9768 34.0376 31.9434C34.305 31.91 34.6532 36.3235 35.2863 36.4239C35.9195 36.5243 40.9018 37.0575 41.592 37.055C42.2833 37.0526 40.8484 29.1468 40.8484 29.1468L27.9049 25.0175L19.169 29.9152Z" fill="#20181B"/>
<path d="M29.4911 66.1568C30.2246 66.0508 30.9344 65.8239 31.5947 65.4852C31.8939 65.3235 32.0052 64.9485 31.8435 64.6492C31.6772 64.3486 31.2999 64.2383 30.9982 64.4022C29.3748 65.2216 27.4524 65.1883 25.8572 64.3163C25.5655 64.1517 25.1959 64.2489 25.0236 64.5356L25.0229 64.5494C24.8524 64.8454 24.9538 65.2232 25.2498 65.3937C26.5322 66.1313 28.0318 66.4004 29.4911 66.1568Z" fill="#FFA184"/>
<g opacity="0.5">
<path d="M35.366 61.5899C31.6453 59.2163 26.8517 59.3557 23.2745 61.9412" stroke="#3E3538" stroke-width="0.9" stroke-linecap="round" stroke-linejoin="round"/>
</g>
<path d="M21.836 47.6468C21.8043 48.8444 21.1943 49.8139 20.4845 49.7774C19.7746 49.7409 19.2269 48.7493 19.2769 47.559C19.3269 46.3688 19.921 45.3946 20.6284 45.431C21.3357 45.4673 21.8838 46.4513 21.836 47.6468Z" fill="#20181B"/>
<path d="M36.184 48.1681C36.0941 49.3614 36.6027 50.3884 37.3188 50.4252C38.0348 50.462 38.675 49.5327 38.7436 48.3434C38.8134 47.1542 38.3261 46.1232 37.6101 46.0863C36.8953 46.0496 36.2628 46.9729 36.184 48.1681Z" fill="#20181B"/>
<path d="M20.8922 42.8322C20.8922 42.8322 22.1549 42.0507 21.6492 41.1932C21.1436 40.3357 20.3783 40.9496 19.7608 41.3951C18.84 42.0793 17.7858 42.5633 16.6676 42.8175C15.8506 43.0492 14.9996 43.1366 14.1529 43.0758C14.1529 43.0758 15.5538 45.8022 20.8922 42.8322Z" fill="#20181B"/>
<path d="M37.7269 44.2219C37.7269 44.2219 36.3983 43.5544 36.8252 42.6552C37.2533 41.756 38.0695 42.2993 38.7279 42.692C39.7069 43.2909 40.7978 43.6805 41.9364 43.8368C42.7702 43.9946 43.6252 44.0064 44.4648 43.8724C44.4648 43.8724 43.324 46.712 37.7269 44.2219Z" fill="#20181B"/>
<path d="M39.0855 41.6188C42.7033 41.8048 45.4809 44.978 45.2892 48.707C45.0976 52.4361 42.0092 55.3078 38.3914 55.1219C34.7736 54.9359 31.996 51.7627 32.1876 48.0336C32.3793 44.3046 35.4677 41.4329 39.0855 41.6188Z" stroke="white" stroke-miterlimit="10"/>
<path d="M20.1235 40.6441C23.7413 40.83 26.519 44.0032 26.3273 47.7323C26.1357 51.4614 23.0473 54.3331 19.4295 54.1471C15.8117 53.9612 13.0341 50.788 13.2257 47.0589C13.4174 43.3298 16.5058 40.4581 20.1235 40.6441Z" stroke="white" stroke-miterlimit="10"/>
<path d="M26.1655 46.8535C26.1655 46.8535 29.3715 44.2443 32.2514 46.8592" stroke="white" stroke-miterlimit="10"/>
<path d="M44.7757 45.0706C44.7757 45.0706 48.3598 41.5044 50.1861 40.7207" stroke="white" stroke-miterlimit="10" stroke-linecap="round"/>
<path d="M14.1087 43.3504C14.1087 43.3504 11.0523 39.85 8.98145 38.9696" stroke="white" stroke-miterlimit="10" stroke-linecap="round"/>
</svg>
