<svg width="40" height="28" viewBox="0 0 40 28" fill="none" xmlns="http://www.w3.org/2000/svg">
<path d="M0 26.01C0 27.11 0.892002 28 1.99 28H18.01C18.5378 28 19.0439 27.7903 19.4171 27.4171C19.7903 27.0439 20 26.5378 20 26.01C20 25.4822 19.7903 24.9761 19.4171 24.6029C19.0439 24.2297 18.5378 24.02 18.01 24.02H1.99C0.890003 24.02 0 24.91 0 26.01ZM0 14C0 15.1 0.892002 15.99 1.99 15.99H38.01C38.5378 15.99 39.0439 15.7803 39.4171 15.4071C39.7903 15.0339 40 14.5278 40 14C40 13.4722 39.7903 12.9661 39.4171 12.5929C39.0439 12.2197 38.5378 12.01 38.01 12.01H1.99C0.890003 12.01 0 12.902 0 14ZM1.99 3.98C1.46222 3.98 0.956055 3.77034 0.582859 3.39714C0.209663 3.02395 0 2.51778 0 1.99C0 1.46222 0.209663 0.956055 0.582859 0.582857C0.956055 0.20966 1.46222 1.57291e-08 1.99 0H26.01C26.2713 -7.78826e-09 26.5301 0.0514729 26.7715 0.15148C27.013 0.251487 27.2324 0.398069 27.4171 0.582857C27.6019 0.767646 27.7485 0.987022 27.8485 1.22846C27.9485 1.4699 28 1.72867 28 1.99C28 2.25133 27.9485 2.5101 27.8485 2.75154C27.7485 2.99298 27.6019 3.21235 27.4171 3.39714C27.2324 3.58193 27.013 3.72851 26.7715 3.82852C26.5301 3.92853 26.2713 3.98 26.01 3.98H1.99Z" fill="white"/>
</svg>
