<svg width="47" height="37" viewBox="0 0 47 37" fill="none" xmlns="http://www.w3.org/2000/svg">
<g opacity="0.6">
<path d="M35.5912 0.109588C31.7562 -0.349837 28.0257 0.702246 24.4192 2.01735C21.3962 3.11997 18.3823 4.28576 15.4604 5.66518C10.0874 8.19891 4.34459 11.8192 1.48697 17.6206C0.693306 19.0184 0.425689 20.6551 0.731206 22.2332C1.14813 23.6563 2.1715 24.8221 3.52911 25.4182C6.56017 26.8872 10.1988 26.2842 13.2724 25.3113C16.818 24.1031 20.2568 22.6019 23.5543 20.8228C26.8346 19.1355 30.0219 17.2737 33.1035 15.2442C36.1506 13.3008 39.0542 11.1404 41.7912 8.78009C43.1626 7.57984 44.4019 6.23832 45.4907 4.77735C46.2039 3.80222 47.2135 2.22294 45.8445 1.29835C45.2369 0.976753 44.5615 0.805617 43.8735 0.799874C42.9616 0.699949 42.045 0.656303 41.1285 0.667789C39.3826 0.695355 37.6437 0.895205 35.9358 1.2616C32.404 2.07018 28.9916 3.33016 25.7825 5.01165C19.4114 8.0898 13.5756 12.1718 8.49894 17.1014C5.9675 19.5479 3.86219 22.3986 2.27028 25.5376C1.01835 28.1575 -0.432289 32.4623 1.90848 34.8685C2.95138 35.8287 4.27912 36.4225 5.6907 36.5592C7.35496 36.797 9.04335 36.8188 10.7134 36.6247C14.2165 36.1549 17.6151 35.096 20.7656 33.4926C23.9506 31.9259 27.0241 30.1399 29.9633 28.1483C32.7325 26.36 35.3064 24.2857 37.6437 21.9598C38.7854 20.8021 39.8283 19.5502 40.7621 18.2178C41.2559 17.5092 41.7165 16.7718 42.1403 16.0137C42.648 15.312 42.9535 14.4838 43.0224 13.6201C42.942 11.957 41.0492 11.6021 39.8455 11.47C38.1089 11.331 36.3631 11.547 34.7137 12.1075C31.4725 13.1619 28.3438 14.5367 25.3759 16.2113C22.3908 17.8262 19.5826 19.7523 17.0006 21.9541C15.6694 23.0946 14.4152 24.3224 13.2459 25.6295C12.0756 26.7597 11.1923 28.1529 10.6674 29.6931C9.69803 33.4317 13.6973 34.8054 16.3321 35.0741C19.7836 35.251 23.2155 34.4596 26.2408 32.7885C29.2822 31.2804 32.1513 29.4462 34.7953 27.3156C37.4255 25.2688 39.6617 22.7615 41.3949 19.9154C41.8279 19.402 42.045 18.7393 42.0002 18.0685C41.8015 17.4816 41.3065 17.044 40.6989 16.92C39.1472 16.5742 37.5208 16.866 36.1873 17.732C34.6735 18.6451 33.2562 19.7098 31.9595 20.9112C30.5881 22.1092 29.2891 23.3898 28.0704 24.7428C26.861 26.0499 25.7837 27.4741 24.8545 28.9925C23.9081 30.3995 23.2993 32.0063 23.0765 33.6878C22.8732 37.5562 27.9223 36.9256 30.0299 36.086C31.6138 35.3946 33.1 34.4976 34.4519 33.4202C35.7922 32.437 37.0499 31.3447 38.2123 30.156C39.3528 28.9867 40.3417 27.6785 41.156 26.2624C41.8302 25.0679 42.764 23.3726 42.122 21.9518C41.4971 20.5666 39.8811 20.5127 38.6763 20.7653C36.9936 21.1214 35.458 21.9748 34.2658 23.2141C32.5866 24.9587 31.3519 28.409 33.3332 30.45C35.3914 32.5783 39.1254 31.3689 41.086 29.7069C42.0611 28.8799 43.4221 27.4293 43.3153 25.9614C43.1258 24.8439 42.0657 24.0904 40.9481 24.2788C40.8379 24.2983 40.7299 24.3247 40.6242 24.3615C39.2609 24.7589 38.2548 25.9132 38.0492 27.3179C37.8815 28.6261 38.342 29.9366 39.2908 30.8532C41.3386 32.8873 44.4478 31.9523 45.6343 29.3669C45.8548 28.8891 44.975 28.37 44.7269 28.9075C44.1882 30.195 42.934 31.0369 41.5385 31.0484C39.9282 30.8761 38.7636 29.4312 38.9359 27.8221C39.0771 26.5047 40.0833 25.4469 41.3915 25.239C43.6518 25.1333 41.1537 28.2252 40.4726 28.8168C39.4665 29.7115 38.2237 30.2961 36.8926 30.4983C35.659 30.6671 34.0568 30.5672 33.5204 29.12C32.5441 26.4898 34.8309 23.7642 36.7869 22.626C37.7976 22.0379 39.4757 21.2822 40.6403 21.7267C42.1679 22.3125 40.6403 24.8898 40.1315 25.7685C38.6361 28.2069 36.687 30.3352 34.3887 32.0373C32.0583 33.8635 29.2202 35.9424 26.2029 35.7012C25.5252 35.7311 24.8705 35.4635 24.4054 34.9708C24.0826 34.2173 24.1033 33.3616 24.4617 32.6242C24.9659 31.1357 25.6849 29.7276 26.5968 28.4469C28.4012 25.9442 30.5043 23.6712 32.8588 21.6784C34.0062 20.631 35.2409 19.6845 36.5526 18.8507C37.1556 18.4705 37.8091 18.1742 38.4925 17.9697C38.8727 17.8618 39.2666 17.8055 39.6629 17.802C39.9018 17.802 40.6334 17.7848 40.8023 18.0157C41.1468 18.4946 40.1131 19.7787 39.8685 20.1589C39.4515 20.7941 39.0036 21.4062 38.5258 21.9966C37.6253 23.1096 36.6387 24.1524 35.5763 25.1126C33.4767 26.9791 31.2014 28.6376 28.7814 30.0641C26.2052 31.7364 23.3728 32.9746 20.3969 33.7303C18.8911 34.0829 17.3348 34.161 15.8026 33.96C14.3945 33.9095 13.0622 33.3145 12.0836 32.3004C11.0901 30.9221 12.0434 29.0844 12.8876 27.9358C13.7548 26.7987 14.7081 25.7306 15.7395 24.7382C17.8356 22.6697 20.1373 20.8228 22.6113 19.2251C24.9647 17.7021 27.4295 16.3583 29.984 15.2051C32.7405 13.9521 35.7187 12.5715 38.744 12.4865C39.5297 12.4486 40.3164 12.5382 41.0733 12.7507C41.4007 12.8494 41.7992 12.97 41.8899 13.3916C41.8888 13.9073 41.728 14.4103 41.4305 14.8307C40.7655 16.1033 39.9902 17.3139 39.1116 18.4498C37.3864 20.6597 35.3948 22.6467 33.1815 24.3661C30.9419 26.1084 28.5988 27.7107 26.1627 29.1659C23.5336 30.821 20.7817 32.2693 17.9286 33.4983C15.1215 34.7238 12.1226 35.4509 9.06633 35.6438C6.78873 35.7403 2.6585 35.8092 1.95672 32.7334C1.74309 31.1575 1.94638 29.5518 2.54823 28.0794C3.05245 26.6081 3.72895 25.2022 4.56511 23.8906C6.19147 21.3752 8.12106 19.0678 10.3079 17.0199C14.7046 12.9574 19.6285 9.50368 24.9464 6.75173C30.3997 3.80566 36.4033 1.45111 42.5848 1.71757C43.3279 1.73251 44.0688 1.80257 44.8027 1.92661C45.8984 2.1368 45.2495 3.15213 44.8188 3.76431C43.9103 5.03807 42.8754 6.21764 41.7303 7.28351C39.478 9.34403 37.0717 11.2288 34.5323 12.9218C29.3752 16.5053 23.8989 19.6053 18.1733 22.1827C15.303 23.6436 12.226 24.6509 9.04795 25.1689C6.65204 25.4365 2.3392 25.2459 1.69715 21.961C1.14813 19.1355 3.5268 16.124 5.18763 14.2323C6.92196 12.2912 8.92046 10.6029 11.1246 9.21769C13.5159 7.72341 16.0255 6.42783 18.6304 5.34703C21.3399 4.18354 24.0872 3.06943 26.8679 2.13106C29.6773 1.06289 32.6762 0.580498 35.6797 0.716029C35.9703 0.740148 35.8497 0.141747 35.5981 0.109588H35.5912Z" fill="#B5B5B5"/>
</g>
</svg>
