<svg width="14" height="14" viewBox="0 0 14 14" fill="none" xmlns="http://www.w3.org/2000/svg">
<path fill-rule="evenodd" clip-rule="evenodd" d="M6.64992 0.349976C6.78253 0.349976 6.90971 0.402654 7.00347 0.496422C7.09724 0.59019 7.14992 0.717367 7.14992 0.849976V3.02198C7.14992 3.15458 7.09724 3.28176 7.00347 3.37553C6.90971 3.4693 6.78253 3.52198 6.64992 3.52198C6.51731 3.52198 6.39014 3.4693 6.29637 3.37553C6.2026 3.28176 6.14992 3.15458 6.14992 3.02198V1.37198C4.88913 1.48409 3.70251 2.01631 2.7803 2.88332C1.8581 3.75032 1.25374 4.90188 1.06412 6.15336C0.8745 7.40484 1.11061 8.68374 1.73458 9.78502C2.35856 10.8863 3.33426 11.7462 4.50525 12.2267C5.67624 12.7073 6.97468 12.7807 8.19239 12.4353C9.41009 12.0898 10.4765 11.3455 11.2207 10.3216C11.9649 9.29769 12.3437 8.05356 12.2964 6.78868C12.2491 5.52381 11.7785 4.31144 10.9599 3.34598C10.9153 3.29625 10.8811 3.23808 10.8593 3.17491C10.8376 3.11175 10.8287 3.04486 10.8332 2.9782C10.8377 2.91154 10.8556 2.84647 10.8857 2.78682C10.9158 2.72717 10.9575 2.67416 11.0085 2.63092C11.0594 2.58767 11.1185 2.55508 11.1822 2.53505C11.2459 2.51502 11.313 2.50797 11.3796 2.51432C11.4461 2.52066 11.5106 2.54027 11.5694 2.57199C11.6282 2.6037 11.6801 2.64688 11.7219 2.69898C12.7018 3.85452 13.2578 5.31004 13.2977 6.82461C13.3377 8.33918 12.8593 9.82198 11.9416 11.0276C11.024 12.2332 9.72221 13.0893 8.25171 13.4542C6.78122 13.8191 5.2302 13.671 3.85539 13.0342C2.48058 12.3975 1.36441 11.3104 0.691632 9.9529C0.0188551 8.59538 -0.17019 7.04881 0.15579 5.5692C0.481771 4.08958 1.30323 2.76565 2.4842 1.81652C3.66516 0.867401 5.13483 0.350004 6.64992 0.349976ZM7.40992 7.57998L9.92592 4.07298C9.95942 4.02483 9.97493 3.96645 9.96973 3.90803C9.96453 3.84961 9.93896 3.79488 9.89749 3.75341C9.85602 3.71194 9.80129 3.68637 9.74287 3.68117C9.68445 3.67597 9.62606 3.69148 9.57792 3.72498L6.06892 6.23998C5.95602 6.32126 5.86213 6.42611 5.79376 6.54727C5.72539 6.66844 5.68417 6.80301 5.67296 6.94167C5.66174 7.08034 5.6808 7.21979 5.72881 7.35036C5.77682 7.48094 5.85264 7.59951 5.95101 7.69789C6.04938 7.79626 6.16796 7.87207 6.29853 7.92008C6.42911 7.9681 6.56855 7.98715 6.70722 7.97594C6.84589 7.96472 6.98046 7.9235 7.10162 7.85513C7.22278 7.78676 7.32764 7.69288 7.40892 7.57998H7.40992Z" fill="white"/>
</svg>
