<svg width="65" height="65" viewBox="0 0 65 65" fill="none" xmlns="http://www.w3.org/2000/svg">
<g filter="url(#filter0_d_53_1375)">
<path d="M32.5 0C26.8632 0 21.3531 1.6715 16.6663 4.80311C11.9795 7.93473 8.32654 12.3858 6.16945 17.5935C4.01235 22.8012 3.44795 28.5316 4.54763 34.0601C5.64731 39.5885 8.36167 44.6667 12.3475 48.6525C16.3333 52.6383 21.4115 55.3527 26.9399 56.4524C32.4684 57.552 38.1988 56.9877 43.4065 54.8306C48.6142 52.6735 53.0653 49.0205 56.1969 44.3337C59.3285 39.6469 61 34.1368 61 28.5C61 24.7573 60.2628 21.0513 58.8306 17.5935C57.3983 14.1357 55.299 10.9939 52.6525 8.34745C50.0061 5.70099 46.8643 3.60169 43.4065 2.16943C39.9487 0.737174 36.2427 0 32.5 0ZM26.8 41.325V15.675L43.9 28.5L26.8 41.325Z" fill="white"/>
</g>
<defs>
<filter id="filter0_d_53_1375" x="0" y="0" width="65" height="65" filterUnits="userSpaceOnUse" color-interpolation-filters="sRGB">
<feFlood flood-opacity="0" result="BackgroundImageFix"/>
<feColorMatrix in="SourceAlpha" type="matrix" values="0 0 0 0 0 0 0 0 0 0 0 0 0 0 0 0 0 0 127 0" result="hardAlpha"/>
<feOffset dy="4"/>
<feGaussianBlur stdDeviation="2"/>
<feComposite in2="hardAlpha" operator="out"/>
<feColorMatrix type="matrix" values="0 0 0 0 0 0 0 0 0 0 0 0 0 0 0 0 0 0 0.25 0"/>
<feBlend mode="normal" in2="BackgroundImageFix" result="effect1_dropShadow_53_1375"/>
<feBlend mode="normal" in="SourceGraphic" in2="effect1_dropShadow_53_1375" result="shape"/>
</filter>
</defs>
</svg>
